<?xml version="1.0" encoding="UTF-8" standalone="no"?><svg xmlns="http://www.w3.org/2000/svg" xmlns:xlink="http://www.w3.org/1999/xlink" fill="#000000" height="470.1" preserveAspectRatio="xMidYMid meet" version="1" viewBox="243.0 265.4 513.0 470.1" width="513" zoomAndPan="magnify"><g id="change1_1"><path d="M 254.007812 542.78125 C 258.246094 549.6875 283.941406 578.183594 317.449219 617.777344 C 357.496094 665.097656 402.652344 718.40625 407.9375 724.445312 C 417.644531 735.542969 424.789062 727.886719 439.308594 698.851562 C 459.410156 658.640625 500.851562 570.519531 559.09375 490.085938 C 617.335938 409.65625 704.703125 320.902344 725.503906 304.261719 C 746.304688 287.621094 756.011719 276.527344 742.144531 270.980469 C 728.277344 265.433594 619.980469 342.023438 556.792969 410.476562 C 488.9375 483.984375 415.433594 603.980469 397.214844 606.808594 C 382.621094 609.074219 312 556.113281 291.980469 543.671875 C 268.734375 529.21875 242.976562 524.820312 254.007812 542.78125" fill="#ffffff"/></g></svg>