<?xml version="1.0" encoding="UTF-8" standalone="no"?><svg xmlns="http://www.w3.org/2000/svg" xmlns:xlink="http://www.w3.org/1999/xlink" fill="#ffffff" height="784" preserveAspectRatio="xMidYMid meet" version="1" viewBox="26.0 36.2 549.7 784.0" width="549.7" zoomAndPan="magnify"><g id="change1_1"><path d="M566.46,419.09c-8.74-39.49-44-65.66-80.44-60.93l-5.47,0.94c-0.12,0.03-0.25,0.05-0.37,0.08 c-0.22,0.05-0.439,0.1-0.649,0.15c-0.23,0.02-0.46,0.04-0.69,0.07c-2.71,0.25-5.439,0.68-8.16,1.28 c-0.64,0.14-1.27,0.29-1.899,0.45l-0.03,0.01c-27.65,6.99-47.31,30.76-51.94,59.26c-1.27-5.24-2.14-10.07-2.14-10.07 C412,401.67,401,339,401,339c0.33-15.33-11.33-34.67-11.33-34.67c-6.64-12.4-5.79-45.27-5.43-53.9 C410.01,217,376,195.67,376,195.67c-7.67-4-21.33-18.67-21.33-18.67c-2.25-2.26-5.6-4.36-8.46-5.93c-6.25-13.14,0.21-24.87,3.9-30 c2.689,0.1,5.34,0.33,7.96,0.86c3.58,0.73,8.699,1.77,12-0.51c5.16-3.54-0.59-6.68,1.34-11.01c0.899-2.03,3.6-2.19,3.93-4.41 c0.18-1.28-0.43-2.62-1.37-3.57c1.41-1.56,2.641-2.42,2.36-5.43c-0.271-3.09-0.16-4.29,0.62-6.82c2.68-1.85,6.28-2.92,6.38-6.18 c0.09-2.79-3.29-5.3-5.36-7.9c-0.17-2.94,1.75-6.75,2.351-8.76c1.359-4.53-0.33-8.27-0.99-12.67c-0.7-4.61-0.6-9.06-2.41-13.32 c-0.97-2.27-2.24-4.52-3.91-6.03c-0.109-0.1-0.24-0.2-0.37-0.29c-1.31-3.76-2.199-8.2-5.88-11.12c-3.569-2.84-9.13-3.93-13.35-4.98 c-10.97-2.73-20.34-2.58-31.4-0.26c-7.74,1.63-15.859,4.71-21.189,10.49c-5.63-1.86-11.5-1.49-16.74,1.77 c-6.94,4.3-9.21,14.63-11.01,22.07c-2.67,11.06-3.46,21.67-4.14,33c-0.386,6.346-1.447,12.869-2.794,19.304 c-3.72,5.058-8.384,9.237-12.043,12.101c-0.948,0.719-1.813,1.376-2.579,1.958c-0.798,0.546-1.492,1.021-2.062,1.412 c-1.141,0.78-1.788,1.222-1.788,1.222s0.707-0.337,1.955-0.933c0.624-0.299,1.382-0.662,2.254-1.081 c0.856-0.464,1.825-0.989,2.885-1.563c1.654-0.931,3.521-2.062,5.467-3.383c-0.108,0.141-0.211,0.277-0.319,0.418 c-2.553,3.338-5.263,6.857-7.749,10.5c-2.482,3.639-4.758,7.397-6.399,11.13c-1.667,3.718-2.713,7.359-3.217,10.5 c-0.554,3.138-0.477,5.78-0.449,7.589c0.153,1.801,0.24,2.822,0.24,2.822s0.034-1.024,0.094-2.831 c0.185-1.787,0.413-4.353,1.301-7.317c0.839-2.964,2.236-6.3,4.216-9.635c1.958-3.349,4.521-6.667,7.297-9.894 c0.428-0.494,0.868-0.982,1.305-1.473c-0.488,0.939-0.977,1.878-1.457,2.821c-2.653,5.211-5.161,10.462-6.994,15.555 c-1.86,5.079-3.058,9.961-3.63,14.168c-0.636,4.204-0.514,7.73-0.465,10.156c0.214,2.416,0.335,3.785,0.335,3.785 s0-1.375-0.001-3.8c0.164-2.408,0.347-5.868,1.326-9.924c0.917-4.056,2.485-8.68,4.707-13.445 c2.197-4.778,5.065-9.677,8.107-14.588c0.064-0.104,0.131-0.208,0.195-0.312c-0.717,1.931-1.407,3.871-2.008,5.852 c-0.664,1.027-1.313,2.137-1.95,3.192l-0.922,1.743l-0.46,0.871l-0.029,0.054l-0.057,0.104l-0.013,0.03l-0.052,0.118l-0.104,0.237 l-0.207,0.473c-1.14,2.507-1.97,5.084-2.613,7.627c-0.666,2.539-1.095,5.059-1.405,7.486c-0.597,4.862-0.663,9.372-0.421,13.186 c0.231,3.816,0.707,6.933,1.153,9.084c0.19,1.081,0.419,1.906,0.547,2.475c0.135,0.567,0.207,0.869,0.207,0.869 s-0.042-0.307-0.121-0.885c-0.072-0.578-0.219-1.425-0.304-2.512c-0.124-1.147-0.228-2.574-0.28-4.215 c0.394,1.995,0.924,3.823,1.53,5.382c0.852,2.265,1.906,3.966,2.613,5.141c0.784,1.12,1.228,1.754,1.228,1.754 s-0.34-0.696-0.939-1.924c-0.509-1.256-1.264-3.045-1.739-5.325c-0.498-2.265-0.782-4.968-0.674-7.869 c0.052-1.329,0.195-2.699,0.402-4.083c0.124,0.761,0.265,1.531,0.423,2.308c0.049,0.932,0.109,1.856,0.191,2.761 c0.457,4.875,1.391,9.344,2.792,12.956c1.378,3.618,3.349,6.295,5.15,7.612c0.038,0.031,0.075,0.051,0.113,0.08 c0.199,5.743,0.941,11.939,2.53,18.404c0,0,7.75,32.75,18.75,52c0,0,6.5,14.34,8.88,25.04c-2.01,4.08-6.22,12.63-8.63,17.46 c0,0-16.25,21.25-13.92,65.92l1.3,21.22c-19.84-36.98-54.59-59.9-91.14-55.63c-2.93,0.34-5.81,0.85-8.63,1.52v-0.01l-15.21,3.41 l-3.87,0.87c-43.04,10.87-72.65,58.92-70.74,114.82L41.5,485c0,0-15.5,2.5-13,18.5c0,0,2,17,17,14l38.57-6.67 c13.35,56.15,57.21,95.29,104.03,89.82c0.95-0.11,1.89-0.24,2.82-0.391l8.47-1.819l13.21-2.83V595.6 c14.73-3.04,27.98-10.38,39.06-20.92c-3.68,7.641-15.98,36.11-11.99,67.99l5.33,63.66c0,0,0.67,18.34-0.33,24.34c0,0-4,9-1,15 c0,0,0.58,4.43,0.12,8.311c-5.4,3.239-6.44,18.64-7.4,23.409c-0.89,4.471-1.32,8.62,2.23,12.511c1.16,1.27,3.92,3.109,6.65,4.52 c0.24,5.76,5.57,13.271,9.83,16.94c6.08,5.239,14.29,7.39,21.91,8.13c6.92,0.67,16.08,0.64,22-3.61c7.58-5.45,3.58-11.87-0.4-17.99 c-2.307-3.552-4.678-7.127-6.801-10.817c0.324,0.097,0.706,0.19,1.064,0.214c0.478,0.058,1.02-0.002,1.487-0.205 c0.486-0.19,0.813-0.567,1.015-0.851c0.365-0.6,0.375-0.926,0.399-0.927c0,0,0.016-0.079,0.045-0.229 c0.034-0.152,0.06-0.365,0.075-0.63c0.028-0.527-0.021-1.237-0.175-2.043c-0.318-1.613-0.994-3.617-2.005-5.646 c-0.134-0.257-0.266-0.51-0.442-0.79l-0.165-0.239l-0.125-0.161l-0.249-0.323c-0.328-0.426-0.7-0.884-1.054-1.298 c-0.708-0.844-1.454-1.618-2.16-2.309c-1.421-1.377-2.768-2.337-3.463-2.782c-0.131-0.083-0.255-0.146-0.384-0.222 c-0.055-0.051-0.1-0.11-0.157-0.158c-0.426-0.337-0.933-0.611-1.49-0.698c-0.041-0.118-0.082-0.236-0.123-0.353 c0.309,0.023,0.874,0.079,1.546,0.215c0.703,0.158,1.509,0.433,2.231,0.816c0.727,0.375,1.362,0.851,1.82,1.216 c0.44,0.393,0.725,0.646,0.725,0.646s1.101,1.074,2.083,2.507c0.999,1.413,1.904,3.12,2.208,3.686 c0.555,1.041,1.154,1.512,2.153,2.157c0.127-1.179,0.133-1.948-0.423-3.058c-0.301-0.594-1.242-2.378-2.332-3.914 c-1.065-1.551-2.329-2.776-2.328-2.776c0,0-0.327-0.294-0.833-0.75c-0.532-0.431-1.28-0.995-2.16-1.451 c-0.872-0.467-1.861-0.807-2.72-0.997c-0.857-0.175-1.58-0.234-1.934-0.249c-0.28,0.009-0.531,0.028-0.768,0.061 c-1.215-2.891-2.824-5.467-5.699-8.032c-1.53-8.13-2.8-23.17-2.8-23.17c-1-11.66,8.33-62.66,8.33-62.66c8-27.34,8-61.34,8-61.34 c0.33-14.66,6.67-30,6.67-30c8.04-14.521,9.62-25.41,9.93-29.53c11.32-12.979,16.75-44.819,17.86-52.01 c1.92,14.479,6.67,52.01,5.87,64.54c0,0-1.66,42,10.34,61c0,0,9,17.34,10.66,26.34c0,0,5.87,21.68,6.22,34.021 c-5.689,2.18-2.52,14.64-3.05,19.31c-0.74,6.5-7.67,13.46-1.12,19.14c5.45,4.73,15.62,3.92,22.62,3.25 c7.76-0.75,15.16-1.89,23.5-1.89c14.87,0,32.01,8.34,46,1.5c5.73-2.8,12.27-8.74,7.64-15.61c-3.569-5.279-14.34-4.06-20.13-5.899 c-5.483-1.751-9.271-4.604-13.001-8.035c0.082-0.002,0.161-0.003,0.253-0.012c0.146-0.021,0.315-0.054,0.452-0.091 c0.084-0.029,0.169-0.059,0.256-0.089l0.017-0.006l0.121-0.052l0.006-0.003l0.012-0.008l0.05-0.03l0.099-0.062l0.197-0.133 c0.135-0.081,0.256-0.201,0.37-0.344c0.248-0.26,0.396-0.614,0.49-0.952c0.174-0.71,0.021-1.302-0.137-1.859 c-0.365-1.09-0.974-2.033-1.666-2.913c-1.392-1.752-3.153-3.24-4.802-4.291c-1.635-1.074-3.183-1.649-3.969-1.886 c-1.371-0.401-2.601-0.463-3.69-0.23c-1.177-0.726-2.188-1.226-2.775-1.474c-3.498-2.959-7.366-4.772-11.542-2.271 c-12.7-17.48-12.42-60.42-12.42-60.42c1-16-7.33-56.66-7.33-56.66c-1.67-8.34,1-15.34,1-15.34c2.13-5.2,1.91-13.07,1.59-17.22 c7.33-12.94,12.92-58.181,14.76-74.69c0.631,0.51,1.341,1.04,2.061,1.17c1.18,0.22,2.51-0.13,3.81-0.62 c0.96,1.221,3.3,3.45,4.511,3.63c1.97,0.29,3.579-1.27,4.88-3.05c3.47,2.681,6.149,1.021,8.1-1.819c0.87,1.51,2.05,1.779,3.24,1.39 c10.359,36.72,44.03,60.6,78.87,56.28l4.96-0.811l3.37-0.55l7.39-1.21C551.98,501.32,575.67,460.69,566.46,419.09z M257.336,191.954c0.5,1.685,1.051,3.367,1.664,5.046l2.33,4.31c-0.249,2.09-0.438,4.31-0.553,6.631 c-0.333-0.434-0.669-0.931-0.984-1.499c-1.417-2.513-2.244-6.353-2.421-10.33C257.3,194.728,257.297,193.329,257.336,191.954z M256.608,207.769c-0.49-1.741-0.854-3.675-1.101-5.743c0.967,2.052,2.091,3.85,3.306,5.133c0.672,0.718,1.324,1.267,1.923,1.686 c-0.083,2.103-0.097,4.292-0.03,6.551C259.135,213.932,257.569,211.266,256.608,207.769z M288.154,773.05 c0.658,0.645,1.359,1.371,2.028,2.169c0.342,0.401,0.658,0.786,0.994,1.223l0.249,0.323l0.125,0.161l0.065,0.098 c0.114,0.179,0.235,0.407,0.35,0.627c0.917,1.827,1.567,3.756,1.833,5.122c0.133,0.687,0.163,1.23,0.146,1.571 c-0.016,0.345-0.071,0.479-0.063,0.487c-0.004-0.014-0.041,0.173-0.132,0.318c-0.103,0.103-0.133,0.229-0.708,0.189 c-0.263-0.018-0.52-0.085-0.983-0.239c-0.14-0.039-0.097-0.053-0.162-0.074c-0.039-0.008-0.085-0.038-0.133-0.088 c-0.099-0.059-0.204-0.202-0.317-0.324c-0.439-0.603-0.815-1.542-1.123-2.518c-0.614-1.979-1.062-4.193-1.517-6.061 c-0.291-1.242-0.591-2.335-0.844-3.16C288.028,772.937,288.089,772.986,288.154,773.05z M284.997,770.493 c0.006,0.004,0.016,0.012,0.022,0.016c0.252,0.563,0.496,1.208,0.763,1.979c0.25,0.701,0.684,2.157,1.114,4.004 c0.033,0.134,0.066,0.283,0.099,0.421c-0.036-0.102-0.081-0.2-0.116-0.303c-0.787-2.258-1.395-4.295-1.985-6.182 C284.93,770.451,284.961,770.47,284.997,770.493z M305.85,136.58c-0.029-5.09-1.27-10.06-3.43-14.98 c1.45,0.92,2.99,1.68,4.561,2.28C307.12,127.58,306.91,132.02,305.85,136.58z M421.344,694.412l-0.003,0.001 C421.367,694.401,421.384,694.395,421.344,694.412z M412.184,685.589c0.661,0.209,2.005,0.703,3.481,1.675 c1.481,0.941,3.105,2.321,4.324,3.856c0.607,0.759,1.103,1.579,1.339,2.288c0.104,0.339,0.155,0.676,0.102,0.807 c-0.029,0.063-0.03,0.113-0.071,0.137c-0.007,0.019-0.019,0.042-0.058,0.053l-0.04,0.026l-0.008,0.007 c-0.696,0.239-1.38-0.372-1.367-0.323c0,0-0.675-0.405-1.618-1.452c-0.957-1.025-2.083-2.613-3.37-4.33 c-0.345-0.434-0.649-0.857-1.172-1.334c-0.394-0.345-0.788-0.694-1.219-1.042c-0.187-0.151-0.37-0.288-0.555-0.433 C412.031,685.547,412.103,685.563,412.184,685.589z"/></g></svg>