<?xml version="1.0" encoding="UTF-8" standalone="no"?><svg xmlns="http://www.w3.org/2000/svg" xmlns:xlink="http://www.w3.org/1999/xlink" fill="#ffffff" height="724.5" preserveAspectRatio="xMidYMid meet" version="1" viewBox="105.8 118.2 348.5 724.5" width="348.5" zoomAndPan="magnify"><g id="change1_1"><path d="M110.83,251.348c2.07,4.303,7.985,6.124,11.977,7.636c10.89,4.113,22.174,7.748,33.593,10.099 c11.33,2.334,22.918,2.795,34.456,3.412c2.414,1.842,5.375,5.426,6.261,6.58c2.644,3.423,5.042,7.213,6.473,11.306 c2.931,8.424,5.488,16.47,9.082,24.645c0.653,1.493,1.24,3.075,1.84,4.658c-1.501,2.504,0.921,8.165,1.623,10.086 c1.523,4.208,4.779,7.792,5.229,12.058c0.449,4.223,2.645,7.143,4.053,11.086c0.753,2.095,0.925,4.336,1.075,6.528 c0.155,2.052,1.164,4.657,0.664,6.349c-0.708,2.36-2.242,3.643-1.941,6.507c0.09,0.979,0.31,2.137,0.604,3.27 c-2.14,0.649-3.823,1.601-4.777,4.342c-0.791,2.267,0.287,7.657-1.079,9.409c-0.758,0.974-2.261,0.908-3.204,1.877 c-0.906,0.928-1.249,2.3-2.078,3.284c-1.885,2.181-3.878,1.677-5.291,4.896c-0.891,2.016-1.178,4.292-1.286,6.408 c-2.215,2.146-5.17,3.943-7.261,6.105c-2.759,2.85-5.246,6.188-7.535,9.402c-2.325,3.255-3.651,7.188-5.626,10.627 c-1.704,2.988-4.191,4.835-6.13,7.566c-1.732,2.425-3.099,8.415,0.542,10.067c-2.458,4.956-4.031,11.415-5.347,15.093 c-4.664,13.092-2.393,29.243,0.367,42.894c1.46,7.197,2.568,13.077,3.092,20.657c0.282,4.118,2.232,8.101,3.651,12.094 c-6.577,1.713-3.705,19.082-2.173,23.414c1.721,4.876,1.572,9.737,2.903,14.481c1.369,4.82,3.168,5.958,6.396,6.318 c1.979,13.42,3.747,26.521,3.316,40.537c-0.492,15.847-3.462,29.916-3.975,45.663c-0.994,30.156,10.728,61.387,16.794,90.409 c2.178,10.431,6.785,23.318,8.283,35.338c-4.174,4.312-3.205,11.159-3.886,17.154c-0.774,6.947-5.005,17.465,1.605,22.805 c4.761,3.857,16.196,2.391,21.703,0.833c6.619-1.87,9.479-6.043,9.332-11.539c10.488-0.555,24.49-3.329,16.791-14.837 c-2.852-4.269-8.773-6.529-12.013-10.996c-3.191-4.388-4.673-10.917-10.068-12.799c-3.612-10.671-4.081-23.928-4.513-33.179 c-1.465-31.085-1.562-61.418,1.547-92.523c1.555-15.597-0.533-31.394,4.62-46.532c4.547-13.371,7.745-23.818,5.78-37.364 c3.158-2.416,3.667-6.901,2.718-13.161c-0.819-5.396,2.606-22.016-4.804-22.963c1.687-8.172,4.276-16.633,4.593-23.234 c11.777,9.328,26.982,15.164,39.775,22.432c0.493,6.593,2.913,9.007,11.283,13.275c5.331,2.714,12.694,6.913,18.366,4.158 c3.015,2.374,6.352,4.301,8.725,5.479c11.43,5.671,22.347,13.331,32.14,21.49c5.695,4.728,14.38,10.688,20.686,17.319 c-1.944,6.211-5.813,12.859-7.187,18.975c-2.367,10.379-4.071,20.916-5.102,31.851c-2.02,21.375-0.137,42.865,0.343,63.599 c0.162,6.942,0.493,17.029-1.431,25.185c-4.084,0.91-7.188,4.562-11.569,6.254c-6.628,2.561-11.38,1.384-14.082,9.278 c-4.789,13.939,4.012,25.634,12.684,35.219c1.842,2.019,3.584,3.717,5.383,5.19c2.156,7.847,4.428,15.348,9.598,22.214 c5.614,7.458,11.872,15.571,21.07,18.383c13.864,4.258,16.182-2.755,10.18-13.44c-6.15-10.995-3.953-18.923-1.106-30.7 c2.473-10.212,2.693-18.333-0.555-27.757c0.727-8.459-0.335-18.727,0.194-24.252c2.136-22.315,6.24-44.476,9.602-66.217 c1.726-11.171,5.499-21.951,8.677-32.972c2.757-9.554,3.986-18.023,4.764-28.02c5.279-6.469,7.4-17.53,7.41-24.94 c0.021-11.312-6.012-18.443-11.67-27.522c-5.252-8.431-9.822-16.884-16.513-24.313c-10.764-11.937-24.256-21.395-36.18-32.267 c0.513-2.392-0.684-4.95-3.058-8.389c-2.996-4.334-6.472-10.683-11.407-12.524c-3.616-1.345-6.281-0.45-9.848-2.58 c-2.813-1.667-4.506-3.772-6.912-5.88c-4.273-3.739-8.487-7.691-12.84-11.286c-0.634-1.742-1.363-3.503-1.398-5.05 c-0.183-8.955,2.279-17.643,3.086-26.453c0.42-4.403,1.398-8.964,1.426-13.491c0.01-1.797,0.494-6.747,0.13-9.902 c2.027-3.43,2.888-7.876,2.601-11.345c-0.455-5.221-1.402-10.106-1.202-15.392c0.207-5.497,0.327-10.896,1.271-16.218 c0.923-5.21,0.832-10.591,1.854-15.75c0.561-2.751,1.572-4.977,1.824-7.797c0.203-2.355,0.344-4.723,0.423-7.103 c1.565-2.265,3.049-4.602,4.325-7.037c1.777-3.425,4.078-7.026,5.112-10.76c1.121-4.028,0.854-8.943,0.674-13.103 c-0.32-7.377-3.674-14.32-8.302-20.004c4.674-3.135,10.917-4.198,16.561-4.139c9.247,0.09,18.255-0.325,27.409-1.038 c4.682-0.359,9.086-0.225,13.766-1.249c4.294-0.937,8.554-2.279,12.813-3.327c4.421-1.083,8.794-0.715,13.188-1.657 c4.02-0.865,8.37-2.361,12.193-3.929c5.159-2.121,15.908-3.425,19.5-8.805c3.31-0.698,5.638-2.116,6.26-6.323 c0.649-4.362-1.225-8.671-1.688-12.962c-1.738-16.6-3.729-33.365-8.652-49.357c-4.503-14.633-8.039-29.427-15.573-42.854 c-0.896-6.035-9.045-11.43-13.083-14.724c-5.64-4.602-10.224-10.786-16.136-14.969c-3.44-2.44-7.974-1.422-9.881,2.196 c-3.054,1.059-6.371,1.243-9.189,3.378c-3.616,2.77-2.342,5.836-0.424,8.96c-5.718,5.605,4.645,8.86,9.026,11.28 c3.396,1.887,5.31,2.89,9.222,3.36c3.451,0.418,6.579,1.522,9.678,3.139c2.615,1.362,5.334,2.68,8.267,2.988 c0.803,1.837,1.093,4.158,1.614,5.986c0.736,2.561,1.65,5.161,2.218,7.717c1.239,5.669,1.164,11.643,1.328,17.502 c0.339,12.329-1.15,24.483-1.561,36.689c-0.152,4.624-0.842,10.842,0.323,15.833c-6.574,2.835-14.299,3.254-21.459,2.925 c-3.864-0.169-7.615-0.684-11.596-0.335c-3.918,0.35-7.82,1.127-11.763,1.483c-2.338,0.204-4.477,0.458-6.753,1.052 c-0.348,0.09-0.746,0.226-1.183,0.396c-4.705-0.769-8.869-2.962-13.397-4.678c-5.719-2.176-10.952-2.979-17.006-3.573 c-6.175-0.614-12.525-0.421-18.738-0.645c-6.178-0.224-11.854,1.867-17.922,1.647c-3.411-0.119-6.806,0.515-10.188,0.016 c-1.948-0.295-3.813-0.959-5.608-1.757c0.275-2.271,0.697-4.667,1.274-6.817c0.507-1.907,0.768-4.12,1.465-5.891 c0.097-0.25,0.215-0.495,0.346-0.723c1.092,0.882,2.311,1.661,3.285,2.38c3.773,2.741,8.759,4.432,13.31,5.385 c4.365,0.899,8.983-3.684,9.269-8.28c1.08,0.159,2.242,0,3.124-0.519c1.522-0.893,1.709-2.111,1.709-3.609 c1.249,0.24,2.531,0.16,3.313-0.383c0.732-0.514,1.099-2.261,1.154-3.969c1.659,0.145,3.59-0.129,4.574-0.417 c3.172-0.914,3.575-2.996,3.246-6.114c-0.29-2.722-0.91-5.201-0.867-7.947c0.04-1.592,0.527-3.963,0.501-5.86 c4.711-0.908,7.077-8.63,8.063-12.328c1.041-3.908,3.557-13.58,0.911-17.714c3.396-6.173,4.158-12.711-1.132-18.497 c-4.957-5.411-12.726-7.462-18.453-11.939c-6.002-4.687-10.878-9.199-18.439-11.115c-7.197-1.832-15.07-2.914-22.431-1.607 c-7.006,1.249-13.055,4.297-18.377,8.734c-1.736-0.857-3.542-0.958-5.402,0.175c-0.928,0.569-1.518,1.198-1.922,1.882 c-9.509-10.481-26.329-0.39-29.49,11.658c-1.056,3.994-1.049,8.201-1.102,12.294c0.254-2.775,2.043-7.256,4.405-8.984 c-1.975,5.22-1.57,10.826-3.054,16.207c-1.441,5.141-4.221,10.113-5.266,15.268c-0.585,2.851-1.013,6.757-0.331,9.573 c-0.005-2.754,0.99-5.266,3.119-7.093c-2.365,6.734-1.77,14.331-1.612,19.167c1.966,6.403,3.144,9.878,6.847,13.761 c3.513,3.679,8.159,3.938,12.404,6.364c0.795,0.463,1.617,1.027,2.346,1.706c-3.138,2.451-5.94,5.899-9.226,8.042 c-0.214,0.144-0.443,0.274-0.667,0.404c-5.635-0.554-11.712,0.983-17.313,0.769c-6.348-0.244-12.428-1.163-18.802-0.993 c-6.326,0.159-11.666,1.821-17.643,3.703c-5.777,1.822-12.186,2.276-18.056,3.175c-6.094,0.938-11.679,0.399-16.74-3.01 c0.387-4.941,1.997-10.426,3.047-14.882c2.451-10.373,5.955-21.188,10.549-30.801c4.121-8.635,7.919-19.146,14.599-26.21 c3.695,0.701,8.684,0,11.31-0.382c1.438-0.215,7.693-1.648,11.08-2.356c1.74,0.66,3.588,0.674,5.838,0.065 c1.678-0.459,3.283-1.289,4.938-1.767c1.751-0.489,3.726-0.185,5.436-0.823c0.484-1.558-1.046-3.759-2.663-4.398 c2.946-3.369,0.907-6.907-2.483-10.121c-2.736-2.576-6.344-7.401-10.061-8.356c-2.454-0.633-4.257,0.63-5.767,2.302 c-4.531-0.47-11.433,4.462-14.675,5.96c-5.418,2.499-10.418,4.336-14.309,9.083c-1.657,2.041-4.271,5.007-4.709,7.792 c-11.162,9.238-18.599,23.547-25.812,35.866c-3.92,6.708-8.805,12.777-12.697,19.485c-3.754,6.449-5.323,14.02-7.529,21.097 C105.841,241.641,106.147,247.256,110.83,251.348z M236.472,193.246c-0.786-5.62,1.21-10.865,1.199-16.42 c0.559,1.407,1.713,4.053,3.598,5.204c-1.877-3.948-2.436-8.599-1.379-12.966c0.514-2.182,1.898-4.842,3.707-6.199 c0.768-0.574,1.716-0.864,2.651-1.183c0.269,2.591,1.296,5.011,3.181,6.498c-0.203,4.598-1.21,9.005-0.47,13.737 c0.833,5.237,4.013,8.94,6.315,13.497c0,0.015,0.011,0.015,0.009,0.023c-0.864,3.03-2.556,6.839-3.146,8.306 c-1.371,3.385-3.687,6.015-5.458,8.884c-0.57-2.152-2.116-4.161-3.354-5.829C240.165,202.535,237.226,198.711,236.472,193.246z" fill="inherit"/></g></svg>