<?xml version="1.0" encoding="UTF-8" standalone="no"?><svg xmlns="http://www.w3.org/2000/svg" xmlns:xlink="http://www.w3.org/1999/xlink" fill="#000000" height="130.9" preserveAspectRatio="xMidYMid meet" version="1" viewBox="42.0 30.0 124.2 130.9" width="124.2" zoomAndPan="magnify"><g id="change1_1"><path d="M165.26,133.08c-0.35-0.3-0.73-0.43-0.73-0.43l-7.75,0.28c0.04-7.4-3.07-16.52-10.36-19.36 c-5.73-2.23-13.39-1.68-18.53,4.47c0,0-0.49-2.38-1.42-4.54c-0.93-2.16-2.87-5.16-2.87-5.16s2.77-0.33,3.82-0.55 c1.06-0.23,1.21-0.23,1.21-0.23s6.01,0.71,11.14,0.25c5.13-0.45,5.74-0.5,8.3-2.52c2.57-2.01,2.79-2.24,3.65-3.57 c0.85-1.33,0.93-1.43,0.93-1.43s0.75-1.56,1.06-2.52c0.48-1.51,0.14-1.94,0.28-3.29c0,0,0-3.85-1.91-7.27 c-1.91-3.42-2.04-3.04-2.36-3.4c-0.33-0.35-0.3-0.3-0.43-0.48c-0.13-0.18-2.29-2.99-2.49-3.27c-0.2-0.28-0.13-0.2-0.4-0.25 c-0.28-0.05-1.76-2.41-7.19-4.68c-5.43-2.26-7.45-2.44-9.16-3.17s-6.16-4-6.34-4.15c-0.18-0.15-0.25-0.23-0.25-0.23 s-0.2-0.48-1.63-1.81c-1.43-1.33-2.11-1.61-2.19-1.81c-0.08-0.2-3.9-4.48-6.27-6.69c-2.36-2.21-6.99-3.42-6.99-3.42 s-0.76-0.25-1.74-0.56c-0.05-0.17-0.1-0.33-0.14-0.49c0.01,0.02,0.02,0.03,0.03,0.04c-0.01-0.02-0.03-0.04-0.04-0.06 c-0.03-0.12-0.06-0.23-0.09-0.34c0-0.01-0.01-0.02-0.01-0.04c0,0,0,0.01,0.01,0.01c0.09,0.31,0.18,0.56,0.24,0.72 c-0.06-0.21-0.12-0.41-0.17-0.61c0.02,0.02,0.03,0.05,0.05,0.07c-0.02-0.03-0.04-0.06-0.05-0.09c-0.02-0.06-0.03-0.12-0.05-0.18 c0.07,0.12,0.13,0.22,0.19,0.3c0,0,0,0,0,0c0.03,0.1,0.06,0.18,0.09,0.25c-0.02-0.05-0.03-0.1-0.05-0.16 c0.02,0.04,0.04,0.08,0.05,0.11c-0.02-0.05-0.04-0.1-0.06-0.15c0.03,0.04,0.05,0.07,0.07,0.1c-0.03-0.05-0.06-0.09-0.09-0.13 c0-0.01-0.01-0.02-0.01-0.03c-0.01-0.03-0.01-0.05-0.02-0.07c0.06,0.09,0.11,0.16,0.16,0.22c0.06,0.18,0.11,0.33,0.15,0.44 c-0.04-0.14-0.08-0.27-0.11-0.4c0,0.01,0.01,0.01,0.01,0.01c0-0.01-0.01-0.01-0.01-0.02c-0.19-0.67-0.34-1.25-0.44-1.75 c0-0.01,0-0.02-0.01-0.03c0.01-0.02,0.01-0.04,0.01-0.05c0,0.02,0,0.05,0.01,0.07c0-0.03,0-0.05-0.01-0.08 c0.07-0.28,0.09-0.54,0.1-0.79c0.01-0.36-0.01-0.69-0.04-1c-0.03-0.26-0.07-0.5-0.11-0.74c0.01-0.12,0.02-0.24,0.03-0.36 c0,0.07-0.01,0.13-0.01,0.19c0.01-0.11,0.02-0.22,0.02-0.33c0.02-0.25,0.05-0.51,0.07-0.78c0.03,0.23,0.05,0.43,0.06,0.59 c0-0.23-0.02-0.45-0.05-0.66c0.01-0.1,0.02-0.2,0.02-0.3c0.05,0.24,0.08,0.46,0.1,0.63c-0.01-0.15-0.03-0.3-0.05-0.45 c0.11,0.65,0.09,1.22,0.01,1.61c0.1-0.5,0.09-0.97,0.04-1.39c-0.02-0.21-0.05-0.41-0.09-0.6c0.09-1.48,0.05-3.28-0.61-5.94 c-1.31-5.23-3.02-5.63-4.93-6.04c-1.91-0.4-3.62,1.31-3.62,1.31s-0.81-1.51-3.22-3.42c-2.42-1.91-5.13-2.31-8.15-2.42 c-3.02-0.1-5.33,0.15-8.3,1.26c-2.97,1.11-3.57,3.27-4.08,5.13c-0.5,1.86-0.3,2.72-0.3,3.07c0,0.35,0,0.75-0.15,1.46 c-0.15,0.71-0.5,1.26-0.05,2.52c0.45,1.26,0.5,1.51,0.5,1.51s0.08,1.11,0,1.38c-0.08,0.28-0.16,0.4-0.05,0.88 c0.11,0.48,0.31,0.81,0.48,1.06c0.16,0.25,0.15,0.24,0.19,0.3c0.04,0.06,0.09,0.25-0.11,0.41c-0.2,0.16-0.65,0.26-0.59,0.26 c0.06,0,0.75-0.09,0.88-0.13c0.13-0.04,0.15-0.04,0.15-0.04s0.07,0.33,0.2,0.5c0.12,0.17,0.14,0.18,0.14,0.18s-0.22,0.28-0.35,0.43 c-0.13,0.15-0.36,0.24-0.14,0.18c0.23-0.06,0.48-0.18,0.58-0.13c0.1,0.05,0.09,0.05,0.11,0.16c0.03,0.11,0.13,0.38,0.13,0.38 s-0.18,1.43,0,2.29c0.18,0.85,1.51,3.8,2.1,4.73c0.59,0.93,1.41,2.22,1.41,2.22s-0.78,0.83-1.43,3.5c-0.65,2.67-0.15,7.04,0.7,10.16 c0.86,3.12,2.16,6.19,1.86,11.07c-0.3,4.88,0,6.79-0.25,7.9c-0.25,1.11-1.59,7.28-1.84,8.63c-0.25,1.34-0.2,6.82,0.05,9.63 c0.25,2.82,0.4,6.99,0.1,8.93c-0.3,1.94-0.38,3.7-0.65,5.03c-0.28,1.33-0.29,1.65-0.62,2.86c-0.33,1.21-0.31,2.63-0.4,2.34 c-3.67-11.86-12.37-13.06-16.06-12.96c-8.99,0.24-16.1,10.65-15.23,22.16c0.68,9.01,5.24,18.89,14.63,19.45 c10.05,0.6,15.57-5.89,17.71-13.91c0.4-1.51,0.4-2.39,0.4-2.39l0.52-0.33c0,0,0.33,0.19,0.83-0.05c0.5-0.24,0.75-0.6,0.75-0.6 s0.58,0.02,1.16-0.03c0.58-0.05,1.28-0.81,1.81-1.41c0.53-0.6,0.93-0.78,0.93-0.78L95.25,139c0,0,0.28,1.01,0.28,1.43 c0,0.43-1.36,0.58-1.86,1.38c-0.5,0.81-0.75,1.11-0.6,2.16c0.15,1.06-0.15,1.18-1.06,2.39c-0.91,1.21-3.14,2.84-4.15,3.5 c-1.01,0.65-1.31,1.36-3.32,1.76c-2.01,0.4-4.34,1.46-4.75,1.79c-0.42,0.33-0.48,0.63-0.47,0.69c0.01,0.06-0.75,0.87-0.3,2.05 c0.45,1.18,4.23,2.24,6.34,2.34c2.11,0.1,7.65,0,9.56-0.3c1.91-0.3,5.71-0.83,7.82-0.63c2.11,0.2,3.8,0.23,4.73-0.03 c0.93-0.25,1.01-0.38,1.11-0.93c0.1-0.55,0.03-0.95-0.08-1.31c-0.1-0.35-0.03-0.55-0.15-0.93c-0.13-0.38-0.3-0.55-0.28-0.73 c0.03-0.18-0.05-0.6-0.05-0.6s-0.65-4.65-0.98-5.26c-0.33-0.6-0.4-0.6-0.4-0.6s0.05-1.73-0.58-2.21c-0.63-0.48-0.96-0.43-0.96-0.43 s0.03-0.25-0.23-0.48c-0.25-0.23-0.35-0.23-0.35-0.23l-0.8-5.21l8.58-0.15c0,0,0.44,2.33,1.02,2.77c0.58,0.44,1.33,0.36,1.68,0.19 c0.35-0.18,1.15-0.39,1.15-0.39s0.62,0.45,1.24,0.48c0.63,0.03,1.11-0.43,1.26-0.45c0.15-0.03,0.28,0.43,0.71,0.33 c0.43-0.1,0.78-0.43,0.78-0.43l0.2-0.35c0,0,0.25,0.1,0.78-0.03c0.53-0.13,1.11-0.3,1.11-0.3s0.3,1.66,0.33,1.84 c0.03,0.18-0.43,0.78-0.78,1.99c-0.35,1.21-0.2,2.26-0.2,2.26s-0.25,0.55-0.3,1.23c-0.05,0.68,0.07,0.93-0.1,1.28 c-0.18,0.35-0.15,0.03-0.5,0.71c-0.35,0.68-0.6,0.45-0.73,0.85c-0.13,0.4-3.42,1.33-4.1,2.67c-0.68,1.33-0.65,2.89-0.5,3.67 c0.15,0.78,3.9,1.33,5.89,1.51c1.99,0.18,9.38,0.53,10.34,0.48c0.96-0.05,1.13-0.1,1.13-0.1l0.65-0.15c0,0,0.58,0.63,1.76,1.21 c1.18,0.58,6.77,1.18,9.18,0.43c5.58-1.74,10.68-10.9,11.77-16.25c0.91-4.43,0.96-6.84,0.96-6.84s7.47-0.1,7.77-0.1 c0.3,0,0.91-0.78,1.16-1.76C166.19,134.22,165.61,133.39,165.26,133.08z M101.35,52.27l0.04,0.12c0,0,0,0,0,0 C101.37,52.35,101.36,52.31,101.35,52.27z M101.4,52.39c-0.06-0.21-0.14-0.5-0.23-0.85c0.01,0.03,0.03,0.06,0.04,0.1 c-0.02-0.05-0.04-0.1-0.06-0.17c-0.01-0.04-0.02-0.09-0.04-0.14c0.04,0.1,0.09,0.2,0.15,0.3c0.08,0.25,0.17,0.51,0.27,0.79 C101.49,52.41,101.44,52.4,101.4,52.39z M104.14,53.15c-0.02-0.01-0.04-0.01-0.06-0.02c0-0.12,0.01-0.24,0.01-0.38 c0.01,0.03,0.03,0.05,0.04,0.08c0,0.08,0,0.16,0.01,0.25C104.14,53.11,104.14,53.13,104.14,53.15z M102.27,52.45l-0.05-0.15 c0.07,0.13,0.13,0.24,0.19,0.35c-0.02,0-0.03-0.01-0.05-0.01C102.32,52.57,102.3,52.51,102.27,52.45z M102.22,52.6 c-0.01-0.01-0.01-0.03-0.02-0.04l-0.02-0.08C102.2,52.51,102.22,52.56,102.22,52.6C102.23,52.6,102.23,52.6,102.22,52.6z M102.25,52.59L102.25,52.59L102.25,52.59C102.25,52.6,102.25,52.6,102.25,52.59z M99.84,46.86c0-0.02-0.01-0.04-0.01-0.06 c0,0,0,0,0,0c0,0.01,0.01,0.02,0.01,0.03C99.84,46.84,99.84,46.85,99.84,46.86z M103.7,53.02c-0.02-0.03-0.04-0.06-0.06-0.09 c-0.01-0.12-0.02-0.26-0.03-0.42c0,0,0,0,0,0l0.11,0.23c0.01,0.1,0.03,0.19,0.04,0.29C103.74,53.03,103.72,53.02,103.7,53.02z M103.16,52.39c0-0.02-0.01-0.03-0.01-0.05c0.02,0.02,0.03,0.04,0.05,0.06c0,0.01,0.01,0.02,0.01,0.03 C103.19,52.42,103.17,52.4,103.16,52.39z M103.04,52.26c-0.11-0.16-0.21-0.3-0.32-0.45c-0.02-0.03-0.03-0.07-0.05-0.1 c0.03,0.04,0.07,0.08,0.1,0.12c0.09,0.12,0.17,0.23,0.25,0.34c0.01,0.04,0.02,0.07,0.03,0.1C103.05,52.27,103.05,52.27,103.04,52.26 z M104.1,52.52C104.1,52.52,104.09,52.51,104.1,52.52c-0.01-0.02-0.01-0.03-0.01-0.04L104.1,52.52 C104.1,52.53,104.1,52.52,104.1,52.52z M103.38,52.28c-0.01-0.04-0.03-0.09-0.04-0.14c0.01,0.01,0.02,0.02,0.02,0.03 c-0.01-0.01-0.02-0.02-0.03-0.03c0-0.01-0.01-0.02-0.01-0.04c0-0.01,0-0.01,0-0.02c0.02,0.03,0.05,0.05,0.07,0.08 c0.03,0.07,0.05,0.14,0.08,0.21C103.44,52.34,103.41,52.31,103.38,52.28z M103.28,51.7L103.28,51.7l-0.01-0.02c0,0,0,0,0,0 C103.28,51.69,103.28,51.7,103.28,51.7z M100.82,49.33c0,0.02,0.01,0.03,0.01,0.04c0-0.01-0.01-0.02-0.01-0.03 C100.82,49.34,100.82,49.34,100.82,49.33z M102.46,50.76c-0.01-0.01-0.01-0.02-0.01-0.03c0.05,0.06,0.09,0.12,0.13,0.18 c0.01,0.02,0.02,0.04,0.02,0.05C102.55,50.9,102.5,50.83,102.46,50.76z M103.62,51.22l0-0.01l0,0 C103.62,51.21,103.62,51.22,103.62,51.22C103.63,51.22,103.62,51.22,103.62,51.22z M103.18,51.34 C103.18,51.34,103.18,51.35,103.18,51.34c0,0-0.01-0.01-0.01-0.02C103.17,51.33,103.17,51.33,103.18,51.34z M103.37,51.62 c0,0.01,0,0.01,0,0.02C103.37,51.62,103.36,51.62,103.37,51.62C103.36,51.61,103.36,51.61,103.37,51.62z M103.21,51.43 c0-0.01,0-0.02,0-0.04c0,0,0,0,0,0.01L103.21,51.43C103.22,51.44,103.21,51.43,103.21,51.43z M103.37,51.69 c-0.01-0.02-0.03-0.04-0.04-0.06c0-0.01,0-0.02,0-0.03C103.35,51.63,103.36,51.66,103.37,51.69z M103.22,51.45c0-0.01,0-0.02,0-0.04 c0.03,0.04,0.06,0.09,0.09,0.13c0.01,0.02,0.02,0.04,0.02,0.06c0,0.01,0,0.02,0,0.04c-0.03-0.05-0.06-0.1-0.1-0.15 C103.23,51.47,103.22,51.46,103.22,51.45z M103.83,51.89c0.01,0.02,0.02,0.04,0.02,0.05c0.01,0.02,0.01,0.05,0.02,0.07 c0,0.04,0,0.08,0.01,0.12C103.86,52.06,103.85,51.98,103.83,51.89z M103.83,51.73c0,0,0.01,0.01,0.01,0.01 c0,0.02,0.01,0.05,0.01,0.07C103.84,51.79,103.83,51.76,103.83,51.73z M103.81,51.66c0-0.01,0-0.02-0.01-0.03v0 c0.01,0.02,0.01,0.03,0.02,0.04c0,0,0,0,0,0.01C103.82,51.67,103.81,51.67,103.81,51.66z M102.67,51.38 c0.07,0.09,0.14,0.17,0.2,0.25c0.01,0.04,0.02,0.08,0.03,0.12c-0.04-0.05-0.08-0.1-0.11-0.15 C102.75,51.52,102.71,51.45,102.67,51.38z M103.17,51.88c-0.01-0.03-0.01-0.06-0.02-0.09c0.01,0.02,0.02,0.04,0.02,0.06 C103.17,51.87,103.17,51.88,103.17,51.88C103.17,51.88,103.17,51.88,103.17,51.88z M101.08,50.44c0,0.01,0,0.02,0,0.03 c-0.01-0.02-0.01-0.03-0.02-0.05l-0.01-0.02C101.06,50.41,101.07,50.43,101.08,50.44z M101.15,50.59c0.04,0.08,0.08,0.16,0.12,0.25 l0.01,0.07c-0.05-0.1-0.09-0.19-0.14-0.29C101.15,50.61,101.15,50.6,101.15,50.59z M102.47,51.12 C102.48,51.12,102.48,51.13,102.47,51.12C102.48,51.13,102.48,51.13,102.47,51.12C102.48,51.13,102.48,51.13,102.47,51.12z M103.18,51.94C103.18,51.94,103.18,51.94,103.18,51.94c0.01,0.01,0.02,0.02,0.03,0.03c0,0.01,0.01,0.02,0.01,0.03 C103.21,51.98,103.2,51.97,103.18,51.94C103.18,51.95,103.18,51.94,103.18,51.94z M103.18,51.9C103.18,51.9,103.18,51.9,103.18,51.9 C103.19,51.9,103.19,51.9,103.18,51.9C103.19,51.91,103.19,51.9,103.18,51.9z M102.95,51.91c0,0,0,0.01,0,0.01l-0.03-0.04 C102.93,51.89,102.94,51.9,102.95,51.91z M103.19,51.99c0.02,0.02,0.03,0.04,0.05,0.05c0.02,0.05,0.04,0.1,0.06,0.15 c-0.03-0.03-0.05-0.05-0.07-0.08C103.21,52.07,103.2,52.03,103.19,51.99z M103.32,52.26C103.32,52.26,103.32,52.26,103.32,52.26 c-0.01-0.01-0.02-0.01-0.02-0.02C103.31,52.25,103.31,52.26,103.32,52.26z M103.8,52.29c0,0,0-0.01,0-0.01 c0,0.01,0.01,0.01,0.01,0.02c0-0.01-0.01-0.02-0.01-0.02c0-0.01,0-0.03,0-0.04l0.03,0.11c-0.01-0.01-0.01-0.02-0.02-0.03 C103.8,52.3,103.8,52.29,103.8,52.29z M103.83,52.24c0.01,0.01,0.02,0.02,0.03,0.03c0.01,0.05,0.02,0.09,0.04,0.14 c0,0.01,0,0.01,0,0.02c-0.01-0.02-0.02-0.03-0.03-0.04C103.85,52.34,103.84,52.29,103.83,52.24z M103.42,52.6l-0.12-0.17 c-0.01-0.02-0.01-0.04-0.02-0.06c0.04,0.03,0.08,0.07,0.11,0.09c0.03,0.07,0.05,0.15,0.08,0.23 C103.46,52.66,103.44,52.62,103.42,52.6z M103.28,52.33c-0.01-0.04-0.02-0.08-0.03-0.13c0.03,0.03,0.06,0.05,0.09,0.08 c0.02,0.05,0.04,0.1,0.06,0.15C103.35,52.4,103.31,52.37,103.28,52.33z M103.31,52.06c-0.02-0.06-0.03-0.13-0.05-0.2 c0.01,0.01,0.03,0.03,0.04,0.04c0.03,0.08,0.06,0.16,0.09,0.24C103.36,52.11,103.34,52.08,103.31,52.06z M103.29,51.9 c-0.01-0.02-0.03-0.03-0.04-0.05c0-0.02-0.01-0.03-0.01-0.05l0.04,0.06C103.29,51.87,103.29,51.88,103.29,51.9z M103.33,51.8 l-0.01-0.03c0.01,0.01,0.02,0.02,0.03,0.03c0.03,0.05,0.06,0.1,0.09,0.15c0,0,0,0,0,0C103.39,51.91,103.36,51.85,103.33,51.8z M103.72,52.47c0,0,0.01,0.01,0.01,0.01c0,0.04,0.01,0.08,0.01,0.12c0,0,0,0-0.01-0.01C103.73,52.55,103.73,52.51,103.72,52.47z M103.81,52.36c0.01,0.01,0.01,0.02,0.02,0.03l0.06,0.25c-0.01-0.01-0.02-0.02-0.03-0.03C103.85,52.53,103.83,52.44,103.81,52.36z M103.9,52.68l0.02,0.08c0,0.03,0,0.06,0.01,0.09c-0.02-0.06-0.03-0.13-0.05-0.2C103.89,52.67,103.89,52.68,103.9,52.68z M103.87,52.43c0.01,0.01,0.02,0.02,0.03,0.03c0,0.06,0.01,0.12,0.01,0.18C103.9,52.58,103.88,52.5,103.87,52.43z M103.46,52.51 c0.02,0.01,0.03,0.03,0.04,0.04C103.48,52.53,103.47,52.51,103.46,52.51c-0.02-0.06-0.03-0.11-0.05-0.16 c0.02,0.01,0.03,0.03,0.05,0.04c-0.02-0.02-0.03-0.03-0.05-0.05c0,0,0,0,0,0c0.03,0.03,0.06,0.05,0.09,0.08 c0,0.01,0.01,0.02,0.01,0.03c0.02,0.1,0.03,0.2,0.05,0.3c-0.01-0.01-0.02-0.02-0.03-0.03C103.5,52.66,103.48,52.58,103.46,52.51z M103.51,52.44c0-0.01-0.01-0.01-0.01-0.02c0,0,0,0,0.01,0C103.5,52.43,103.5,52.44,103.51,52.44z M103.48,52.37 c-0.02-0.06-0.04-0.12-0.06-0.19c0.02,0.02,0.03,0.04,0.05,0.05c-0.02-0.02-0.04-0.04-0.05-0.06c-0.03-0.07-0.05-0.15-0.08-0.24 l0.02,0.02l0.12,0.25c0.01,0.06,0.02,0.12,0.03,0.18C103.49,52.38,103.49,52.38,103.48,52.37z M103.6,52.44 c0-0.05-0.01-0.1-0.02-0.16c0,0,0,0.01,0.01,0.01c0.02,0.08,0.04,0.15,0.06,0.23c-0.01-0.01-0.02-0.01-0.03-0.02 C103.62,52.48,103.61,52.46,103.6,52.44z M103.66,52.55c0.01,0.04,0.02,0.09,0.04,0.13c-0.02-0.04-0.04-0.09-0.06-0.14 C103.65,52.54,103.66,52.55,103.66,52.55z M103.74,52.61C103.74,52.61,103.74,52.61,103.74,52.61c0.01,0.02,0.01,0.04,0.01,0.06 C103.75,52.65,103.74,52.63,103.74,52.61C103.74,52.61,103.74,52.61,103.74,52.61z M103.86,52.69 C103.86,52.69,103.86,52.69,103.86,52.69C103.86,52.69,103.86,52.69,103.86,52.69c0-0.02-0.01-0.05-0.01-0.07c0,0,0,0,0,0 c0.03,0.11,0.06,0.22,0.1,0.33c-0.01-0.03-0.02-0.06-0.02-0.09c0-0.02,0-0.04,0-0.06l0.03,0.12c0,0.06,0.01,0.12,0.01,0.18 c-0.01,0-0.02-0.01-0.03-0.01c-0.03-0.11-0.05-0.22-0.08-0.35l0.06,0.21C103.9,52.87,103.88,52.79,103.86,52.69z M103.96,52.89 c-0.01-0.05-0.02-0.1-0.03-0.16c0-0.01,0-0.02,0-0.02c0.01,0.01,0.01,0.02,0.02,0.02C103.95,52.79,103.95,52.84,103.96,52.89z M103.93,52.68c0-0.05,0-0.1,0-0.15c0,0.02,0.01,0.03,0.01,0.05c0,0.04,0.01,0.08,0.01,0.12C103.94,52.7,103.93,52.69,103.93,52.68z M100.96,50.68c0.02,0.04,0.04,0.08,0.06,0.11c0.02,0.07,0.04,0.14,0.06,0.22c-0.03-0.05-0.05-0.1-0.08-0.15 C100.99,50.8,100.97,50.74,100.96,50.68z M101.3,51.15c-0.01-0.01-0.01-0.02-0.01-0.03c-0.01-0.04-0.03-0.08-0.04-0.12 c0.06,0.09,0.11,0.16,0.17,0.23c0.02,0.04,0.04,0.07,0.06,0.11c0.01,0.04,0.02,0.08,0.04,0.12c-0.02-0.02-0.03-0.04-0.05-0.06 c0.01,0.01,0.03,0.03,0.04,0.04C101.42,51.35,101.36,51.25,101.3,51.15z M101.71,50.8c0,0.01,0.01,0.01,0.01,0.02 c0.03,0.07,0.06,0.15,0.09,0.22C101.78,50.96,101.74,50.88,101.71,50.8z M102.79,52.75c-0.01,0-0.02,0-0.02-0.01 c-0.07-0.12-0.13-0.24-0.2-0.36C102.63,52.5,102.71,52.63,102.79,52.75z M102.93,52.79c-0.02-0.05-0.04-0.09-0.06-0.14l0.07,0.15 C102.94,52.79,102.93,52.79,102.93,52.79z M103.37,52.64c0.07,0.09,0.13,0.18,0.19,0.26c0.01,0.03,0.02,0.05,0.03,0.08 c-0.02-0.01-0.04-0.01-0.06-0.02c-0.04-0.06-0.07-0.11-0.11-0.16C103.4,52.75,103.39,52.7,103.37,52.64z M103.54,52.77 c0-0.01-0.01-0.02-0.01-0.04c0.01,0.01,0.02,0.01,0.03,0.02c0,0.02,0.01,0.04,0.01,0.06C103.56,52.8,103.55,52.79,103.54,52.77z M103.62,52.88l0,0.02c0,0,0,0,0,0C103.62,52.89,103.62,52.89,103.62,52.88z M103.75,52.7c0-0.01,0-0.01,0-0.02 c0,0.01,0.01,0.03,0.01,0.04c0,0.01,0,0.02,0,0.03C103.75,52.73,103.75,52.71,103.75,52.7z M103.79,52.66c0,0.01,0,0.02,0.01,0.02 l0,0.06c0-0.01,0-0.03,0-0.05c0.03,0.12,0.07,0.25,0.11,0.38c-0.02-0.01-0.04-0.01-0.06-0.02c-0.02-0.05-0.03-0.11-0.05-0.16 C103.8,52.83,103.79,52.75,103.79,52.66z M104.09,52.55c0.01,0.01,0.02,0.02,0.02,0.03c0,0.02,0.01,0.04,0.01,0.06 c0,0.05,0,0.09,0.01,0.14c-0.01-0.03-0.03-0.06-0.04-0.09C104.09,52.65,104.09,52.6,104.09,52.55z M104.12,52.58l0,0.01 c0,0.01,0,0.03,0,0.04C104.12,52.62,104.12,52.6,104.12,52.58z M104.25,52.39l0-0.01c0,0.01,0.01,0.02,0.01,0.03 C104.25,52.4,104.25,52.4,104.25,52.39z M101.21,51.23c-0.02-0.07-0.04-0.14-0.05-0.21c0.05,0.09,0.09,0.18,0.14,0.26 c0.02,0.06,0.05,0.12,0.07,0.19C101.31,51.4,101.26,51.32,101.21,51.23z M101.52,51.49c0.02,0.05,0.03,0.1,0.05,0.15 c-0.05-0.09-0.11-0.19-0.16-0.28C101.44,51.41,101.48,51.45,101.52,51.49z M102.62,52.7c-0.17-0.34-0.32-0.66-0.46-0.95l-0.2-0.4 c-0.04-0.11-0.08-0.22-0.13-0.35c0,0,0,0,0,0c0.11,0.25,0.21,0.47,0.31,0.67c0.21,0.44,0.41,0.77,0.54,0.99 c-0.05-0.09-0.1-0.18-0.15-0.27c0.07,0.12,0.13,0.24,0.2,0.34C102.7,52.73,102.66,52.71,102.62,52.7z M102.95,52.8 c-0.03-0.08-0.07-0.18-0.12-0.28c0.05,0.08,0.09,0.15,0.14,0.23c0.01,0.02,0.02,0.05,0.03,0.07 C102.99,52.81,102.97,52.8,102.95,52.8z M102.98,52.35c-0.03-0.06-0.06-0.12-0.09-0.19c0.04,0.04,0.07,0.08,0.11,0.11 c0.04,0.05,0.07,0.09,0.1,0.14c0.02,0.08,0.05,0.15,0.07,0.23C103.11,52.55,103.05,52.45,102.98,52.35z M103.17,52.45 c0.02,0.02,0.04,0.04,0.06,0.05c0.01,0.03,0.02,0.05,0.03,0.08C103.23,52.54,103.2,52.49,103.17,52.45 C103.17,52.45,103.17,52.45,103.17,52.45z M103.41,52.85l0.03,0.09c0,0,0,0,0,0C103.43,52.91,103.42,52.88,103.41,52.85 C103.41,52.85,103.41,52.85,103.41,52.85z M103.46,52.94c0-0.02-0.01-0.04-0.01-0.06c0.02,0.02,0.03,0.04,0.05,0.06 C103.48,52.95,103.47,52.95,103.46,52.94z M103.76,52.87c0.01,0.02,0.01,0.04,0.02,0.05c0.01,0.04,0.01,0.08,0.02,0.12 c-0.01,0-0.02,0-0.02-0.01C103.77,52.99,103.77,52.93,103.76,52.87z M103.81,53.03c0,0.01,0.01,0.02,0.01,0.03c0,0,0,0-0.01,0 C103.81,53.04,103.81,53.03,103.81,53.03z M104.2,52.53l0.02,0.12l-0.01-0.06L104.2,52.53z M104.29,52.56 c-0.01-0.02-0.01-0.04-0.02-0.06c0.01,0.02,0.03,0.04,0.04,0.06c0,0.02,0,0.03,0,0.05C104.31,52.59,104.29,52.58,104.29,52.56z M104.34,52.63c0,0.01,0.01,0.02,0.01,0.03c0,0,0-0.01-0.01-0.01C104.34,52.64,104.34,52.64,104.34,52.63z M99.4,45.63 c0,0.07,0,0.14,0,0.21c-0.02,0.12-0.05,0.25-0.07,0.38C99.34,46.04,99.37,45.84,99.4,45.63z M99.71,46.81c0,0.01,0,0.01,0,0.02 c0,0,0,0,0-0.01C99.71,46.82,99.71,46.82,99.71,46.81z M99.83,46.84c0.01,0.02,0.01,0.03,0.01,0.05c0,0.1,0,0.19-0.01,0.27 c0-0.08-0.01-0.16-0.01-0.23C99.82,46.9,99.83,46.87,99.83,46.84z M99.88,47.16c0,0.11-0.01,0.23-0.02,0.34 c-0.01-0.07-0.01-0.14-0.02-0.21C99.86,47.25,99.87,47.2,99.88,47.16z M100.05,48.12c0.02,0.03,0.04,0.06,0.06,0.09 c0,0.03,0,0.06,0,0.1c-0.02-0.03-0.04-0.06-0.06-0.09C100.05,48.19,100.05,48.16,100.05,48.12z M101.05,51.54 C101.05,51.54,101.05,51.54,101.05,51.54c-0.04-0.13-0.08-0.26-0.12-0.4C100.97,51.27,101.01,51.4,101.05,51.54z M101.06,51.14 c0-0.01,0-0.02-0.01-0.03c0.03,0.05,0.06,0.09,0.09,0.13c0.03,0.1,0.06,0.2,0.09,0.3C101.18,51.42,101.12,51.29,101.06,51.14z M101.43,51.56c-0.01-0.03-0.02-0.05-0.03-0.08c0.03,0.06,0.07,0.11,0.1,0.17C101.48,51.61,101.46,51.59,101.43,51.56z M102.51,52.67c-0.05-0.1-0.09-0.2-0.14-0.29c0.06,0.1,0.11,0.2,0.16,0.3C102.52,52.68,102.51,52.68,102.51,52.67z M103.25,52.85 c0.01,0.01,0.01,0.03,0.02,0.04c-0.01,0-0.02,0-0.02-0.01c-0.02-0.05-0.05-0.09-0.07-0.14C103.2,52.78,103.23,52.81,103.25,52.85z M103.25,52.75c-0.02-0.07-0.04-0.15-0.07-0.22c0,0,0,0,0.01,0.01l0.04,0.11c-0.01-0.03-0.01-0.06-0.02-0.1 c0.04,0.05,0.08,0.11,0.12,0.16c0.03,0.07,0.05,0.14,0.08,0.21c-0.01,0-0.03-0.01-0.04-0.01C103.32,52.86,103.28,52.8,103.25,52.75z M104.21,52.89l0.05,0.16c-0.02-0.04-0.03-0.07-0.05-0.11C104.2,52.92,104.2,52.91,104.21,52.89z M104.28,52.72 c0.01,0.02,0.01,0.04,0.02,0.06c-0.01-0.01-0.01-0.01-0.02-0.02L104.28,52.72z M104.32,52.7C104.32,52.7,104.33,52.7,104.32,52.7 C104.33,52.7,104.33,52.7,104.32,52.7C104.33,52.7,104.33,52.7,104.32,52.7z M104.34,52.67c0.01,0.01,0.01,0.02,0.02,0.03 c0.01,0.02,0.01,0.04,0.02,0.05C104.36,52.72,104.35,52.7,104.34,52.67C104.34,52.67,104.34,52.67,104.34,52.67z M104.26,51.75 l-0.01-0.06c0.07,0.24,0.13,0.44,0.19,0.59c-0.03-0.06-0.07-0.13-0.1-0.19C104.32,51.97,104.29,51.86,104.26,51.75z M104.47,52.31 c-0.02-0.05-0.03-0.1-0.05-0.15c0.02,0.06,0.04,0.11,0.06,0.17C104.47,52.32,104.47,52.32,104.47,52.31z M104.25,49.16 c0.02,0.14,0.04,0.27,0.05,0.4c0.03,0.34,0.03,0.64,0.02,0.88c-0.02-0.34-0.05-0.66-0.08-0.96 C104.24,49.37,104.24,49.26,104.25,49.16z M96.42,49.54c0.03-0.05,0.06-0.1,0.09-0.16c0.01-0.01,0.02-0.02,0.02-0.03 c-0.06,0.23-0.12,0.44-0.17,0.61c-0.02-0.05-0.03-0.09-0.04-0.14C96.35,49.73,96.38,49.64,96.42,49.54z M96.38,50.01 c0.09-0.28,0.17-0.54,0.25-0.78c0.01-0.02,0.02-0.03,0.04-0.05c0,0,0,0,0-0.01c-0.1,0.37-0.19,0.69-0.25,0.92 C96.4,50.07,96.39,50.04,96.38,50.01z M96.17,51c0-0.05,0-0.11,0-0.16c0.01,0.11,0.03,0.24,0.04,0.37 C96.19,51.14,96.18,51.07,96.17,51z M96.37,51.25l0.03,0.1c0,0.08,0.01,0.16,0.01,0.25l-0.04-0.02 C96.37,51.47,96.37,51.36,96.37,51.25z M96.48,51.29l0.02,0.1l-0.01-0.05L96.48,51.29z M96.49,51.59c0.01,0.02,0.01,0.03,0.02,0.05 l-0.02-0.01C96.49,51.62,96.49,51.61,96.49,51.59z M96.59,51.69c0-0.01-0.01-0.02-0.01-0.02l-0.02-0.22 c0.04,0.1,0.08,0.19,0.11,0.28L96.59,51.69z M96.72,51.75c-0.08-0.2-0.14-0.39-0.19-0.56l-0.01-0.1c0.09,0.27,0.18,0.5,0.27,0.7 L96.72,51.75z M96.88,51.83c-0.26-0.66-0.36-1.18-0.39-1.57c0-0.02-0.01-0.04-0.01-0.06c-0.01-0.02-0.02-0.03-0.03-0.05 c0.11-0.35,0.23-0.67,0.32-0.96c0.03-0.1,0.06-0.19,0.09-0.28c0.77-1.11,1.11-2.65,1.11-3.21c0-0.6-0.1-2.87-0.25-4.78 c-0.15-1.91-0.86-2.72-0.86-2.72s0.21-0.02,0.51,0.06c0.11,0.16,0.22,0.33,0.33,0.51c0.03,0.05,0.06,0.11,0.1,0.2 c0.06,0.07,0.11,0.15,0.17,0.23c0.05,0.15,0.1,0.31,0.15,0.48l0.03,0.1l0.01,0.03c0,0,0.01,0.01,0,0.01l0.01,0.02l0.02,0.07 c0.19,0.38,0.42,0.83,0.64,1.4c0,0.03,0,0.06,0.01,0.09l0.01,0.25c0.12,0.54,0.24,1.22,0.31,2.09c0.05,0.59,0.07,1.27,0.06,2.06 c-0.06,0.38-0.15,0.78-0.26,1.21c0.07-0.19,0.15-0.48,0.24-0.84l-0.05,0.25c0.02-0.05,0.04-0.12,0.05-0.19 c-0.03,0.4-0.06,0.84-0.07,1.35c0.02-0.17,0.04-0.4,0.07-0.7l-0.01,0.2c0.03-0.16,0.06-0.39,0.1-0.68c0.03-0.11,0.06-0.23,0.1-0.36 c0,0.06,0,0.12-0.01,0.18c-0.03,0.3-0.05,0.63-0.08,0.99c0.05-0.28,0.11-0.78,0.19-1.41c0,0,0,0.01,0,0.01 c0.01,0.07,0.02,0.14,0.03,0.21c-0.07,0.59-0.19,1.28-0.34,2.14c0.04-0.16,0.1-0.4,0.16-0.69l-0.04,0.2 c0.05-0.19,0.13-0.5,0.21-0.87c0,0.08,0,0.16,0,0.24l0.01-0.31c0.01-0.03,0.01-0.07,0.02-0.1c0,0.11,0,0.23-0.01,0.35 c-0.05,0.27-0.1,0.55-0.15,0.85c0.04-0.14,0.09-0.35,0.15-0.6c-0.01,0.29-0.02,0.59-0.04,0.91c0.03-0.25,0.07-0.62,0.09-1.08 l-0.01,0.31c0.01-0.13,0.03-0.3,0.04-0.49c0.01-0.04,0.02-0.08,0.03-0.11c0,0.19-0.02,0.35-0.05,0.47c0.04-0.08,0.07-0.19,0.09-0.33 c0,0.01,0.01,0.03,0.01,0.04c0,0.04,0,0.09,0,0.13l-0.06,0.61c0.02-0.09,0.03-0.2,0.05-0.34c-0.01,0.35-0.04,0.73-0.08,1.13 c0.03-0.17,0.07-0.43,0.11-0.75l-0.02,0.22c0.03-0.17,0.06-0.41,0.09-0.71c0,0.04,0.01,0.08,0.01,0.12c0,0.02-0.01,0.04-0.01,0.06 c0.01-0.01,0.01-0.03,0.02-0.04c0.01,0.09,0.02,0.18,0.04,0.25c-0.01,0.15-0.02,0.3-0.04,0.46c0.02-0.09,0.04-0.21,0.05-0.35 c0.01,0.05,0.02,0.09,0.02,0.13c-0.01-0.06-0.01-0.13-0.02-0.19c0.02-0.14,0.03-0.31,0.05-0.49c0,0.07,0.01,0.14,0.01,0.21 c-0.01,0.04-0.02,0.09-0.03,0.14c0,0.03-0.01,0.06-0.01,0.09c0,0.07,0.02,0.15,0.04,0.24c0,0.07,0,0.13,0,0.2 c-0.02-0.03-0.05-0.06-0.07-0.1c0.02,0.03,0.05,0.07,0.07,0.1c0,0.08,0,0.17,0,0.26c-0.02,0.59-0.09,1.23-0.26,1.9 c0.08-0.23,0.17-0.58,0.23-1.02c-0.01,0.1-0.03,0.2-0.05,0.3c0.06-0.25,0.13-0.63,0.17-1.12c0-0.05,0.01-0.1,0.01-0.16 c0.02,0.03,0.04,0.07,0.06,0.1c-0.02,0.44-0.07,0.91-0.16,1.4c0.08-0.28,0.16-0.74,0.2-1.32c0.01,0.03,0.01,0.06,0.02,0.09 c0,0.01,0,0.02,0,0.03l-0.02,0.17c0,0.03,0.01,0.05,0.02,0.08v0.01c0.01,0.04,0.02,0.08,0.03,0.12c0.01,0.08,0.03,0.16,0.05,0.25 c-0.01,0.11-0.02,0.23-0.03,0.35c0.01-0.09,0.03-0.19,0.04-0.3c0.05,0.26,0.1,0.56,0.17,0.91c0.12,0.59,0.29,1.31,0.64,2.18 c-0.05-0.16-0.12-0.39-0.2-0.67l0.06,0.19c-0.01-0.05-0.03-0.11-0.04-0.17c0.04,0.09,0.08,0.19,0.13,0.28 c0.07,0.15,0.16,0.29,0.26,0.44c-0.24-0.05-0.46-0.09-0.63-0.11c-1.36-0.15-2.82,0.05-2.82,0.05L96.88,51.83z M101.28,52.36 c-0.09-0.14-0.18-0.31-0.26-0.5c0.03,0.07,0.06,0.13,0.1,0.2c-0.08-0.18-0.18-0.43-0.27-0.75c-0.09-0.32-0.17-0.69-0.24-1.11l0,0.01 c0.09,0.48,0.22,1.03,0.44,1.67c-0.04-0.15-0.09-0.37-0.16-0.64c0.07,0.21,0.15,0.42,0.26,0.65c0.05,0.15,0.11,0.31,0.17,0.48 C101.32,52.37,101.3,52.37,101.28,52.36z M101.54,52.42c-0.05-0.16-0.11-0.37-0.18-0.61c0.01,0.01,0.01,0.02,0.02,0.04 c-0.01-0.01-0.02-0.03-0.03-0.04c-0.04-0.13-0.07-0.27-0.11-0.42c0.05,0.07,0.11,0.13,0.16,0.19c0.09,0.23,0.19,0.47,0.31,0.73 c-0.06-0.16-0.15-0.39-0.26-0.67c0.04,0.04,0.07,0.07,0.1,0.1c0.02,0.03,0.04,0.05,0.05,0.08c0.03,0.1,0.06,0.2,0.09,0.3 c0.04,0.13,0.08,0.25,0.12,0.39C101.73,52.47,101.63,52.44,101.54,52.42z M102.11,52.57c-0.01-0.03-0.01-0.06-0.01-0.09l0.04,0.07 c0,0.01,0,0.02,0.01,0.02C102.13,52.57,102.12,52.57,102.11,52.57z M103.08,52.83c-0.07-0.18-0.16-0.38-0.25-0.59l0.09,0.13 l0.02,0.03c0-0.01-0.01-0.02-0.01-0.02l0.11,0.16c0.06,0.11,0.11,0.22,0.17,0.33C103.16,52.86,103.12,52.85,103.08,52.83z M104.2,53.17c0-0.07,0-0.14,0-0.2c0.02,0.03,0.03,0.06,0.05,0.09l0.02,0.06l0.01,0.08C104.25,53.18,104.23,53.18,104.2,53.17z M104.37,53.22c-0.02-0.08-0.05-0.16-0.07-0.24l-0.02-0.2c0.01,0.01,0.01,0.01,0.02,0.02c0.02,0.05,0.03,0.1,0.05,0.15 c0,0.02,0,0.03,0.01,0.05c0-0.01,0-0.03,0-0.04c0.03,0.1,0.07,0.2,0.1,0.29C104.42,53.24,104.4,53.23,104.37,53.22z M104.49,53.26 c-0.05-0.17-0.1-0.34-0.15-0.49c0-0.01,0-0.02,0-0.03c0.02,0.05,0.05,0.09,0.07,0.13c0.05,0.15,0.1,0.29,0.15,0.41 C104.53,53.27,104.51,53.26,104.49,53.26z M104.37,52.38C104.37,52.38,104.37,52.37,104.37,52.38 C104.37,52.37,104.37,52.38,104.37,52.38L104.37,52.38z M104.42,52.31c0.03,0.05,0.07,0.1,0.09,0.14l-0.1-0.17 c0.04,0.06,0.07,0.13,0.11,0.18c0.02,0.04,0.03,0.08,0.05,0.12C104.52,52.49,104.47,52.4,104.42,52.31z M104.74,52.77 c-0.06-0.09-0.12-0.18-0.17-0.27c-0.08-0.28-0.15-0.54-0.21-0.78c0.02,0.01,0.03,0.02,0.05,0.03c0.13,0.44,0.24,0.78,0.32,0.99 l-0.06-0.2C104.69,52.61,104.72,52.69,104.74,52.77z M104.33,51.03c-0.01-0.07-0.03-0.14-0.04-0.21c-0.01-0.1-0.02-0.21-0.03-0.33 c-0.01-0.19-0.02-0.38-0.02-0.56c0.02,0.15,0.04,0.28,0.05,0.39l-0.03-0.3c0.02,0.2,0.04,0.38,0.05,0.55c0,0.03,0,0.05-0.01,0.08 c0-0.02,0-0.05,0.01-0.07c0.01,0.15,0.02,0.28,0.03,0.39C104.34,50.98,104.33,51.01,104.33,51.03z M104.32,49.05 c0.08,0.55,0.1,1.01,0.09,1.33c0.01-0.13,0.01-0.25,0.01-0.37c0.01,0.35-0.02,0.67-0.08,0.94c-0.01-0.16-0.02-0.32-0.03-0.47 c0.03-0.27,0.03-0.53,0.01-0.77c-0.01-0.25-0.04-0.49-0.07-0.73c0.01-0.07,0.01-0.14,0.01-0.21 C104.29,48.87,104.31,48.96,104.32,49.05z M81.83,135.79c0,0,0.01-0.28-0.14-1.06c-0.15-0.78-0.73-3.58-0.73-3.58 s0.91-4.28,1.66-8.55c0.75-4.28,1.26-7.14,1.96-10.26c0.7-3.12,1.46-8.7,1.46-8.7c0-0.01,0.05-0.17,0.05-0.17l0.15-1.26 c0,0-0.06,2.49-0.01,3.89c0.05,1.41,0.12,4.93,1.13,8.25c1.01,3.32,2.77,9.21,3.82,11.72c1.06,2.52,3.3,9.28,3.3,9.28L81.83,135.79z M92.32,94.25c-2.72,1.06-3.67,3.07-4.53,4.05c-0.85,0.98-0.93,2.01-1.21,2.77c-0.21,0.58-0.25,0.68-0.25,0.7c0,0,0,0,0,0s0,0,0,0 c0-0.12,0.12-4.09-0.07-5.43c-0.2-1.36,0.07-8.45,0.2-9.96c0.13-1.51-0.08-8.23-0.08-8.23s2.19,4.17,4.48,8.28 c2.28,4.11,4.55,3.09,6.62,3.67c2.06,0.58,7.62-0.15,7.62-0.15l-0.93,0.33C104.17,90.27,95.04,93.19,92.32,94.25z M117.2,127.39 c-0.07,0.78-0.23,1.41-1.51,2.97c-1.28,1.56-3.17,3.04-3.72,3.57c-0.55,0.53-0.65,0.86-0.65,0.86l-8,0.1c0,0-1.23-9.18-1.03-10.54 c0.2-1.36,0.53-5.18-0.45-7.75c-0.98-2.57-2.24-7.6-2.24-7.82c0-0.23,0.03-0.2,0.18-0.33c0.15-0.13,4.15-1.48,4.15-1.48 s0.18,0.03,0.58,0.03c0.4,0,3.92,1.18,3.92,1.18s0.28,0.11,0.35,0.19c0.08,0.08,1.21,2.43,2.14,4.11 c0.93,1.69,6.36,14.04,6.36,14.04S117.27,126.61,117.2,127.39z" fill="#ffffff"/></g></svg>