<?xml version="1.0" encoding="UTF-8" standalone="no"?><svg xmlns="http://www.w3.org/2000/svg" xmlns:xlink="http://www.w3.org/1999/xlink" fill="#000000" height="99.4" preserveAspectRatio="xMidYMid meet" version="1" viewBox="-0.1 -1.2 73.3 99.4" width="73.3" zoomAndPan="magnify"><g fill="#ffffff" id="change1_1"><path d="M66.7178,12.6714c-1.852-1.3935-4.0664-2.6308-6.1963-3.5415c-0.0307-0.0132-0.0566,0.023-0.0332,0.0479 c1.6128,1.7153,3.8907,2.8803,5.8223,4.2094C66.7549,13.6934,67.1309,12.9825,66.7178,12.6714z" fill="inherit"/><path d="M70.7686,9.2481c1.0298-1.0127,2.4341-2.4234,2.419-3.8863c-0.0186-1.8754-1.1407-3.6445-2.7842-4.5678 c-3.4702-1.9458-6.5405-0.0865-8.2705,3.0967c-0.2012-0.066-0.4014-0.127-0.6021-0.1812c-0.061-0.0161-0.0898,0.063-0.0517,0.1011 c2.5551,2.602,6.084,4.2871,8.9555,6.5317c0.0259,0.021,0.0537,0.0259,0.0806,0.041c-0.0776,0.1709-0.1758,0.3321-0.2817,0.4878 c-0.2598,0.3814-0.7022,0.5996-0.9366,0.9805c-0.1045,0.1709-0.0092,0.4722,0.2271,0.458 c0.5581-0.0332,0.9868-0.5361,1.3027-0.9561c0.1973-0.2627,0.4151-0.7426,0.3726-1.124c0.1509-0.1977,0.1797-0.4814-0.0723-0.6885 C71.0098,9.4444,70.8887,9.3457,70.7686,9.2481z M64.5416,1.7539c0.9677-1.4204,3.664-0.8554,4.894-0.2973 c1.6397,0.7426,3.2617,2.7187,2.5684,4.5986c-0.3623,0.9829-1.2056,1.8501-1.9458,2.6162c-2.166-1.7368-4.6538-3.54-7.23-4.5347 C63.3965,3.3404,63.9913,2.5616,64.5416,1.7539z" fill="inherit"/><path d="M69.1133,11.9497c-0.2812-0.1645-0.624-0.1894-0.9365-0.2685c-0.2856-0.0733-0.5722-0.1426-0.8579-0.2168 c-0.0757-0.0205-0.1509,0.0703-0.1201,0.1416c0.1582,0.3662,0.334,0.583,0.6811,0.7827c0.0284,0.0161,0.0591,0.0264,0.0874,0.0415 c-0.187,0.2061-0.3481,0.4492-0.4536,0.5806c-0.0708,0.0879-0.167,0.2324-0.2558,0.3965c-0.021-0.0083-0.0396-0.0206-0.0615-0.0269 c-0.0987-0.0283-0.2173,0.0146-0.2295,0.1313c-0.0787,0.754,0.5752,1.4297,0.019,2.147c-0.082,0.1065-0.1064,0.2217-0.0913,0.3311 c-1.313-1.3203-3.0317-2.3106-4.5488-3.3765c-1.6162-1.1352-3.1143-2.5239-4.8296-3.498 c-0.0093-0.0059-0.0196-0.0059-0.0298-0.0098c0.0088-0.0156,0.0239-0.0288,0.0308-0.0444 c0.0776-0.1709,0.1748-0.3203,0.3134-0.4473c0.2686-0.2456,0.626-0.1689,0.9497-0.1191c0.3037,0.0463,0.4952-0.231,0.4449-0.4561 c0.0356-0.0254,0.0693-0.0605,0.0952-0.1113c0.1782-0.3501,0.3838-0.6797,0.5849-1.0157c0.1148-0.1914,0.2774-0.4296,0.3384-0.663 c0.1582-0.044,0.2896-0.2061,0.2578-0.3926c-0.0639-0.374-0.1465-0.8565,0.0391-1.2227c0.0137-0.0044,0.0293-0.0044,0.042-0.0171 c0.1792-0.1694,0.3589-0.3379,0.5439-0.5014c0.1338-0.1197,0.2666-0.2071,0.3413-0.3745c0.0249-0.0552-0.0249-0.1094-0.0835-0.0953 c-0.3691,0.0977-0.6836,0.5582-0.9399,0.8316c-0.2925,0.1299-0.5171,0.2466-0.6929,0.5786 c-0.1494,0.2793-0.0581,0.6948,0.1104,0.9722c-0.1587,0.1186-0.2866,0.2978-0.4126,0.4433 c-0.2798,0.3223-0.4805,0.7295-0.6734,1.107c-0.0317,0.063-0.0371,0.1245-0.0317,0.1826c-0.8682-0.0991-1.8291,0.5068-1.7383,1.438 c-0.1416,0.1313-0.206,0.3344-0.0683,0.5156c0.1455,0.1919,0.2998,0.3745,0.4614,0.5518 c-4.7485,5.0053-8.731,10.9399-12.7261,16.5312c-4.188,5.8618-8.188,11.8506-12.2881,17.7734 c-4.1172,5.9463-8.3779,11.8135-12.8144,17.5279c-4.5845,5.9048-8.6226,12.2671-13.3643,18.0361 c-0.1557,0.1899-0.1816,0.3853-0.1299,0.5571c-1.0947,3.0674-2.0083,6.1939-3.1587,9.2437 c-0.9223,2.4448-2.5122,5.0625-2.8647,7.6567c-0.1729,0.2993,0.1045,0.7036,0.4614,0.5166 c2.8784-1.5078,5.3936-4.1474,7.9131-6.1889c1.2373-1.003,2.4951-1.9805,3.7642-2.9424c0.4843-0.3677,0.9765-0.6348,1.3676-0.9986 c0.4966,0.2413,0.9756,0.3638,1.3858,0.2564c0.2964-0.0772,0.4165-0.4473,0.3252-0.7105 c-0.0088-0.0253-0.0235-0.0478-0.0332-0.0712c0.123-0.0528,0.2392-0.1392,0.3349-0.2691 c8.5796-11.7353,17.3829-23.3091,25.8921-35.104C49.8555,40.4512,59.1392,29.25,66.1651,16.7012 c0.1006,0.0581,0.1973,0.1245,0.2988,0.1807c0.4014,0.2197,0.7403-0.1817,0.6646-0.543c0.144,0.0874,0.3227,0.0889,0.457-0.0884 c0.3379-0.4463,0.5-0.9145,0.4649-1.479c-0.0103-0.1665-0.0459-0.3476-0.1026-0.5234c0.2778-0.2832,0.4956-0.7324,0.6133-0.9595 c0.0698-0.1357,0.2285-0.4224,0.2891-0.6851c0.0805-0.0127,0.1621-0.0268,0.2412-0.059 C69.335,12.4463,69.3238,12.0728,69.1133,11.9497z M1.8882,95.6978c0.3999-0.8277,0.7339-1.7158,1.0455-2.5977 c0.331,0.2823,0.6967,0.5313,1.0185,0.8291C3.2471,94.5054,2.5489,95.0899,1.8882,95.6978z M7.6461,90.9175 c-0.8174,0.6983-1.6856,1.3887-2.5572,2.0869c-0.4883-0.4697-1.105-0.9062-1.7597-1.0488 c0.1845-0.5391,0.3676-1.0684,0.5537-1.5645c0.9472-2.517,1.9311-5.1245,2.5512-7.7719c0.254,0.2363,0.5376,0.4448,0.7681,0.6245 c1.0317,0.8047,2.0801,1.5859,3.1401,2.354c0.44,0.3183,1.0977,0.9214,1.815,1.4751C10.4796,87.981,8.7335,89.9888,7.6461,90.9175z M40.3809,51.2945c-4.5586,5.8169-8.8354,11.854-13.1909,17.8222c-4.2363,5.8042-8.7837,11.3872-12.9507,17.2378 c-0.0312,0.0445-0.0503,0.0884-0.0703,0.1333c-0.104-0.0605-0.207-0.1206-0.3022-0.1816 c-0.9224-0.5855-1.8291-1.1973-2.7344-1.8086c-0.9707-0.6553-1.939-1.315-2.9087-1.9712 c-0.4248-0.2871-0.9932-0.7661-1.5591-0.9951c0.0215-0.1094,0.0474-0.2183,0.0669-0.3286c0.2227,0.0249,0.459-0.0474,0.6367-0.2657 c4.4317-5.4316,8.2227-11.4672,12.3096-17.167c4.2144-5.8784,8.563-11.6586,12.7842-17.5327 c4.2114-5.8593,8.25-11.8423,12.4326-17.7231C49.129,22.5596,53.8541,16.857,57.897,10.773 c1.1128,1.0591,2.4678,1.9048,3.7066,2.771c1.2134,0.8481,2.4111,1.7973,3.665,2.6142 C57.0259,27.9551,49.2691,39.9522,40.3809,51.2945z" fill="inherit"/><path d="M60.1778,11.9991c-4.8501,5.2656-46.939,63.5742-52.1299,70.9848 c-0.2729,0.3897,0.167,0.9063,0.4971,0.5552c4.1543-4.415,19.7446-27.4517,24.4116-33.773 c4.4785-6.0664,23.0615-30.9482,27.5552-37.5161C60.647,12.0518,60.3365,11.8262,60.1778,11.9991z" fill="inherit"/><path d="M63.232,14.6294c-4.4775,4.7495-42.1616,58.1514-51.8242,70.251 c-0.3535,0.4424,0.2866,1.0508,0.6416,0.6064c8.9736-11.228,48.2109-64.5581,51.4443-70.6401 C63.5797,14.6846,63.3726,14.4815,63.232,14.6294z" fill="inherit"/></g></svg>