<?xml version="1.0" encoding="UTF-8" standalone="no"?><svg xmlns="http://www.w3.org/2000/svg" xmlns:xlink="http://www.w3.org/1999/xlink" fill="#ffffff" height="1000" preserveAspectRatio="xMidYMid meet" version="1" viewBox="0.0 0.0 1000.0 1000.0" width="1000" zoomAndPan="magnify"><g id="change1_1"><path d="M 733.261719 912.320312 L 733.261719 863.101562 C 733.261719 841.375 732.613281 819.660156 731.351562 797.984375 C 728.113281 753.492188 726.480469 708.90625 726.480469 664.320312 C 726.480469 621.523438 727.980469 578.730469 730.980469 536.027344 C 736.695312 454.703125 742.769531 359.066406 741.992188 328.726562 C 741.871094 323.65625 737.25 317.507812 726.769531 317.507812 C 712.96875 317.507812 705.066406 325.382812 701.15625 331.546875 C 687.34375 353.285156 640.070312 435.097656 640.070312 629.519531 C 640.058594 645.519531 659.480469 648.914062 666.683594 654.523438 C 671.515625 658.277344 675.953125 668.835938 675.453125 677.355469 L 668.410156 797.984375 C 667.144531 819.660156 666.511719 841.375 666.511719 863.101562 L 666.511719 943.542969 C 665.011719 944.109375 663.515625 944.683594 662.007812 945.230469 C 622.050781 959.78125 580.183594 968.839844 537.546875 972.175781 L 537.546875 861.996094 C 537.546875 840.28125 536.914062 818.566406 535.640625 796.882812 L 524.90625 613.03125 C 524.210938 601.050781 526.894531 589.117188 532.675781 578.597656 C 532.675781 578.597656 559.589844 548.511719 561.25 526.570312 C 564.566406 460.167969 551.675781 320.484375 545.199219 318.613281 L 539.402344 318.613281 C 531.570312 319.957031 546.171875 487.6875 533.019531 487.6875 L 528.9375 487.6875 C 517.980469 487.6875 528.371094 317.863281 519.585938 318.613281 L 513.359375 318.613281 C 509.054688 318.613281 515.214844 487.6875 507.210938 487.6875 L 501.140625 487.6875 C 490.550781 487.6875 499.296875 318.613281 494.976562 318.613281 L 488.761719 318.613281 C 479.980469 317.863281 490.367188 487.6875 479.398438 487.6875 L 475.328125 487.6875 C 462.175781 487.6875 476.765625 319.957031 468.945312 318.613281 L 463.136719 318.613281 C 456.660156 320.484375 443.78125 460.167969 447.097656 526.570312 C 448.101562 537.605469 455.234375 550.601562 462.121094 560.859375 C 469.011719 571.105469 475.660156 578.597656 475.660156 578.597656 C 481.441406 589.117188 484.140625 601.050781 483.441406 613.03125 L 472.695312 796.882812 C 471.433594 818.566406 470.800781 840.28125 470.800781 861.996094 L 470.800781 972.761719 C 427.28125 970.128906 384.476562 961.539062 343.558594 947.21875 C 342.109375 946.710938 340.664062 946.175781 339.214844 945.652344 L 339.214844 862.3125 C 339.214844 840.585938 338.582031 818.871094 337.320312 797.195312 L 326.574219 637.050781 C 325.875 625.066406 328.574219 613.136719 334.34375 602.617188 L 355.265625 572.6875 C 355.265625 572.6875 403.539062 515.828125 403.539062 462.722656 C 403.539062 382.964844 359.796875 318.296875 305.835938 318.296875 C 251.886719 318.296875 208.144531 382.964844 208.144531 462.722656 C 208.144531 515.828125 256.414062 572.6875 256.414062 572.6875 L 277.339844 602.617188 C 283.105469 613.136719 285.808594 625.066406 285.109375 637.050781 L 274.363281 797.195312 C 273.101562 818.871094 272.46875 840.585938 272.46875 862.3125 L 272.46875 915.527344 C 200.265625 875.910156 139.417969 818.019531 96.199219 747.726562 C 50.492188 673.390625 26.335938 587.726562 26.335938 500 C 26.335938 373.480469 75.605469 254.53125 165.070312 165.070312 C 254.53125 75.609375 373.476562 26.34375 499.992188 26.34375 C 626.515625 26.34375 745.464844 75.609375 834.929688 165.070312 C 924.394531 254.53125 973.664062 373.480469 973.664062 500 C 973.664062 670.867188 881.738281 828.179688 733.261719 912.320312 Z M 960.699219 305.375 C 935.519531 245.832031 899.46875 192.363281 853.550781 146.449219 C 807.636719 100.535156 754.164062 64.484375 694.621094 39.304688 C 632.972656 13.226562 567.488281 0.0078125 499.992188 0.0078125 C 432.503906 0.0078125 367.023438 13.226562 305.371094 39.304688 C 245.832031 64.484375 192.359375 100.535156 146.445312 146.449219 C 100.53125 192.363281 64.480469 245.832031 39.296875 305.375 C 13.222656 367.023438 0 432.507812 0 500 C 0 592.601562 25.507812 683.03125 73.761719 761.519531 C 120.667969 837.808594 187.25 900.265625 266.304688 942.128906 C 288.355469 953.808594 311.425781 963.886719 334.863281 972.074219 C 378.328125 987.289062 423.800781 996.382812 470.011719 999.101562 C 479.871094 999.691406 489.960938 999.992188 499.992188 999.992188 C 512.78125 999.992188 525.757812 999.5 538.546875 998.519531 C 583.921875 995.066406 628.488281 985.464844 671.015625 969.980469 C 694.546875 961.417969 717.617188 950.976562 739.578125 938.953125 C 900.210938 851.109375 1000 682.914062 1000 500 C 1000 432.503906 986.777344 367.023438 960.699219 305.375" fill="inherit"/></g></svg>