<?xml version="1.0" encoding="UTF-8"?><svg xmlns="http://www.w3.org/2000/svg" xmlns:xlink="http://www.w3.org/1999/xlink" height="378.3" preserveAspectRatio="xMidYMid meet" version="1.0" viewBox="-3.0 0.0 380.0 378.3" width="380.0" zoomAndPan="magnify"><g><g><g id="change1_1"><path d="M356.4,133c19.7,59.7,20.6,110.1,0.9,152.7c-19.4,41.8-59.3,75.8-114.2,85.4 c-54.6,7.2-112.4-8.1-156.4-32.3C42.5,313.8,12,280,4.6,231.9c-7.6-48,8.1-83.6,34.2-120.4c26.4-35.5,63.4-72.2,105.7-93 C187,0.6,228.2,0,265.8,18C303,36.1,336.5,72.8,356.4,133z" fill="#FFE43D"/></g><g id="change2_1"><path d="M91.4,230.9c3.9,16.2-7.2,32.6-25.3,35.3c-18.1,2.8-35.7-9.3-38.7-25.6c-3-16.4,8.9-30.1,26.1-32.7 C70.8,205.2,87.5,214.6,91.4,230.9z M299.8,112.3c-15.3,4.9-23.2,24.1-17.1,42.6c6.1,18.5,24.7,30.3,41,27.3 c16.3-3,23.3-20.9,16.3-41.4C332.8,120.3,315.1,107.4,299.8,112.3z" fill="#DB3DFF"/></g><g id="change3_1"><path d="M321.9,173.2c-0.6,0.5-1.4,0.6-2.2,0.5c-1.3-0.1-2.6-0.9-3.4-2.2c-3.3-4.8-7-8-10.7-10.1c19.7,66.9-12.1,135.6-79.8,152.3 c-11.7,2.9-23.7,4.1-35.6,3.7c-22.3-0.6-44.3-6.4-63.6-16.1c-27.7-14-46.5-34.9-53.9-60.4c-2.6,3-4.8,6.7-5.6,11.5 c-0.3,1.9-2.3,3.1-4.5,3c-0.1,0-0.2,0-0.3,0c-2.3-0.3-3.9-2.1-3.5-4c4.1-21.2,28-27.2,29-27.7c2.2-0.6,4.4,0.5,4.9,2.4 c0.5,1.9-0.8,4-3.1,4.6c-0.4,0.1-5,1.4-9.9,4.5c6.3,25.5,24.3,46.4,51.4,59.9c27.6,13.7,61,18.5,92.1,10.4 c64.5-16.5,94.3-83.9,73.3-147.3c-6-1-10.6,0.2-11,0.3c-2.1,0.6-4.3-0.7-5-3c-0.7-2.2,0.4-4.5,2.5-5.2c1-0.3,23.1-6.8,39.2,16.9 C323.7,169.3,323.6,172,321.9,173.2z M119,108c-6.9,2.9-8.4,26.5-2.5,52.2c5.9,25.7,17.3,44,24.9,41.2c7.6-2.8,7.9-26,1.4-51.7 C136.3,123.9,126,105.1,119,108z M201.1,69.9c-6.7,3.2-6.5,26.7,1.1,52.7c7.6,25.9,20.2,45,27.5,42.1c7.3-3,6-27.5-2.2-53.7 C219.2,84.8,207.8,66.8,201.1,69.9z"/></g></g></g><g id="change4_1"><path d="M294.1,60c-8-8.3-19.5-14.1-29.5-19.6c-10.8-5.9-21.7-11-33.9-13.2 c-10.2-1.8-21.1-1.8-31.4-0.9c-12.3,1.2-27,1.3-38.5,6.3c-1.6,0.7-1.3,2.8,0.3,3.3c9.5,2.7,19.7,1.8,29.5,3.3 c9.4,1.5,19.1,3.3,28.3,5.7C243,51.2,257,72,279.1,81.2C292.6,86.8,304.9,71,294.1,60z" fill="#FFF" opacity=".5"/></g><g id="change4_2"><path d="M144.1,28.1c-9.9,2.8-4.8,17.9,5.1,15.2C159.1,40.5,154,25.3,144.1,28.1z" fill="#FFF" opacity=".5"/></g></svg>